<svg id="Layer1" xmlns="http://www.w3.org/2000/svg" viewBox="0 0 72.93 72.93"><defs><style>.cls-1{fill:#a6d9e8;}</style></defs><title>icon-facebook</title><path class="cls-1" d="M99.4,128.51A36.47,36.47,0,1,1,135.87,92,36.5,36.5,0,0,1,99.4,128.51Zm0-70A33.55,33.55,0,1,0,133,92,33.58,33.58,0,0,0,99.4,58.5Z" transform="translate(-62.94 -55.58)"/><path class="cls-1" d="M101.65,82.21c.12-.12.56-.42,1.83-.42a13.31,13.31,0,0,1,2.27.21l1.26.21,1.08-6-1.25-.23c-4-.76-7.24-.49-9.19.75A6.64,6.64,0,0,0,95,79.88a12.07,12.07,0,0,0-.52,4.05v1.28H90.71v5.73h3.75v17.64h6.76V90.94h4.88V85.21h-4.88v-.94C101.22,82.71,101.58,82.28,101.65,82.21Z" transform="translate(-62.94 -55.58)"/></svg>