<svg id="Layer1" xmlns="http://www.w3.org/2000/svg" viewBox="0 0 72.93 72.93"><defs><style>.cls-1{fill:#a6d9e8;}</style></defs><title>icon-instagram</title><path class="cls-1" d="M99.4,320.29a36.46,36.46,0,1,1,36.47-36.46A36.49,36.49,0,0,1,99.4,320.29Zm0-70A33.54,33.54,0,1,0,133,283.83,33.57,33.57,0,0,0,99.4,250.29Z" transform="translate(-62.94 -247.37)"/><path class="cls-1" d="M108,270.61H90.82a5.8,5.8,0,0,0-5.8,5.8v16.31a5.81,5.81,0,0,0,5.8,5.81H108a5.82,5.82,0,0,0,5.81-5.81V276.41A5.81,5.81,0,0,0,108,270.61Zm3.27,22.11A3.28,3.28,0,0,1,108,296H90.82a3.28,3.28,0,0,1-3.27-3.27V276.41a3.28,3.28,0,0,1,3.27-3.27H108a3.28,3.28,0,0,1,3.27,3.27Z" transform="translate(-62.94 -247.37)"/><path class="cls-1" d="M99.4,276.76a7.81,7.81,0,1,0,7.81,7.81A7.82,7.82,0,0,0,99.4,276.76Zm0,13.07a5.27,5.27,0,1,1,5.27-5.26A5.27,5.27,0,0,1,99.4,289.83Z" transform="translate(-62.94 -247.37)"/><path class="cls-1" d="M107.17,275.17a1.32,1.32,0,1,0,1.32,1.32A1.33,1.33,0,0,0,107.17,275.17Z" transform="translate(-62.94 -247.37)"/></svg>