<svg id="Layer1" xmlns="http://www.w3.org/2000/svg" viewBox="0 0 72.93 72.93"><defs><style>.cls-1{fill:#a6d9e8;}</style></defs><title>icon_youtube</title><path class="cls-1" d="M296.24,55.58A36.47,36.47,0,1,0,332.7,92,36.5,36.5,0,0,0,296.24,55.58Zm0,70A33.55,33.55,0,1,1,329.78,92,33.58,33.58,0,0,1,296.24,125.59Z" transform="translate(-259.78 -55.58)"/><path class="cls-1" d="M308,80.81H286a4.54,4.54,0,0,0-4.54,4.53v13.4a4.54,4.54,0,0,0,4.54,4.54h22a4.54,4.54,0,0,0,4.54-4.54V85.34A4.53,4.53,0,0,0,308,80.81ZM305.62,92.1a1.48,1.48,0,0,1-.29.86,5.1,5.1,0,0,1-1.11.78L294.4,99a1.64,1.64,0,0,1-2.11-.68,1.57,1.57,0,0,1-.2-.76V86.5a1.57,1.57,0,0,1,.2-.76,1.67,1.67,0,0,1,2.07-.7l9.73,5.24a5.65,5.65,0,0,1,1.24.84,1.56,1.56,0,0,1,.29.9Z" transform="translate(-259.78 -55.58)"/></svg>