<svg xmlns="http://www.w3.org/2000/svg" width="20" height="20" viewBox="0 0 20 20">
    <defs>
        <style>
            .cls-1{fill:#fff}
        </style>
    </defs>
    <g id="_002-witness">
        <path id="Path_41" d="M19.866 127.906a13.718 13.718 0 0 0-9.867-4.8 13.724 13.724 0 0 0-9.867 4.8.588.588 0 0 0 0 .746 13.7 13.7 0 0 0 9.867 4.8 13.732 13.732 0 0 0 9.867-4.8.588.588 0 0 0 0-.746zm-5.866.373a4 4 0 1 1-4-4 4 4 0 0 1 4 4zm-12.613 0a14.208 14.208 0 0 1 4.5-3.126 5.159 5.159 0 0 0 0 6.251 13.949 13.949 0 0 1-4.5-3.125zm12.735 3.126a5.159 5.159 0 0 0 0-6.251 13.951 13.951 0 0 1 4.5 3.125 14.207 14.207 0 0 1-4.505 3.126z" class="cls-1" transform="translate(0 -118.279)"/>
        <path id="Path_42" d="M204 206a2 2 0 1 0 2-2 2 2 0 0 0-2 2zm2.824 0a.824.824 0 1 1-.824-.824.824.824 0 0 1 .824.824z" class="cls-1" transform="translate(-196 -196)"/>
        <path id="Path_43" d="M240.588 2.549a.588.588 0 0 0 .588-.588V.588a.588.588 0 0 0-1.176 0v1.373a.588.588 0 0 0 .588.588z" class="cls-1" transform="translate(-230.589)"/>
        <path id="Path_44" d="M337.226 24.5a.588.588 0 0 0 .8-.22l.783-1.373a.588.588 0 1 0-1.022-.583l-.783 1.373a.588.588 0 0 0 .222.803z" class="cls-1" transform="translate(-323.717 -21.165)"/>
        <path id="Path_45" d="M123.964 24.282a.588.588 0 1 0 1.022-.583l-.783-1.373a.588.588 0 0 0-1.022.583z" class="cls-1" transform="translate(-118.277 -21.165)"/>
        <path id="Path_46" d="M240.588 445a.588.588 0 0 0-.588.588v1.373a.588.588 0 0 0 1.176 0v-1.373a.588.588 0 0 0-.588-.588z" class="cls-1" transform="translate(-230.589 -427.549)"/>
        <path id="Path_47" d="M124.767 423.044a.588.588 0 0 0-.8.22l-.783 1.373a.588.588 0 0 0 1.022.583l.783-1.373a.588.588 0 0 0-.222-.803z" class="cls-1" transform="translate(-118.277 -406.38)"/>
        <path id="Path_48" d="M338.029 423.263a.588.588 0 1 0-1.022.583l.783 1.373a.588.588 0 1 0 1.022-.583z" class="cls-1" transform="translate(-323.717 -406.379)"/>
    </g>
</svg>
