<svg xmlns="http://www.w3.org/2000/svg" width="223.514" height="23.566" viewBox="0 0 223.514 23.566">
  <g id="footer" transform="translate(-825.769 -918)">
    <text id="Powered_by_UrBox" data-name="Powered by UrBox" transform="translate(927.283 934.357)" fill="#d9e1e3" font-size="15" font-family="Roboto-Regular, Roboto"><tspan x="0" y="0">Powered by UrBox</tspan></text>
    <g id="urbox" transform="translate(825.769 918)">
      <path id="Path_1" data-name="Path 1" d="M0,174.522v1.891l10.4,6.008,10.406-6.008V173.57l-11.2,7.249Z" transform="translate(0 -158.855)" fill="#d9e1e3"/>
      <path id="Path_2" data-name="Path 2" d="M18.9,3.239,14.269.567,8.447,5.934,6.939,5.209,11.678,0,2.27,5.432l5.9,3.407Z" transform="translate(-2.078)" fill="#d9e1e3"/>
      <path id="Path_3" data-name="Path 3" d="M17.708,44.26,6.928,51.748,0,46.686v2.877l7.374,4.085L20.81,48.491v-2.44Z" transform="translate(0 -40.508)" fill="#d9e1e3"/>
      <path id="Path_4" data-name="Path 4" d="M0,110.12v3.474l11.34,5.8,9.471-7.555V108.72l-10.7,7.552Z" transform="translate(0 -99.503)" fill="#d9e1e3"/>
      <path id="Path_5" data-name="Path 5" d="M322.218,78.521a7.834,7.834,0,0,1-.091,1.217,4.609,4.609,0,0,1-.34,1.164,3.882,3.882,0,0,1-6.937,0,4.414,4.414,0,0,1-.332-1.164,7.228,7.228,0,0,1-.1-1.217V71.38h1.149v7.141a7.106,7.106,0,0,0,.075,1.058,3.041,3.041,0,0,0,.309,1.012,2.693,2.693,0,0,0,4.731,0,3.048,3.048,0,0,0,.309-1.012,6.376,6.376,0,0,0,.083-1.058V71.38h1.141Z" transform="translate(-287.764 -65.329)" fill="#d9e1e3"/>
      <path id="Path_6" data-name="Path 6" d="M439.836,77.509a3.641,3.641,0,0,1-2.418,1.058l3.234,4.269h-1.443l-3.884-5.183,1.24-.008a4.556,4.556,0,0,0,1.224-.166,2.36,2.36,0,0,0,1.889-2.425,2.317,2.317,0,0,0-1.255-2.2,3.453,3.453,0,0,0-1.081-.363,7.851,7.851,0,0,0-1.149-.068H434.2V82.835H433.05V71.38h2.909q.385,0,.7.015.4.023.732.06a4.655,4.655,0,0,1,1.391.363,3.365,3.365,0,0,1,2.04,3.265,3.293,3.293,0,0,1-.982,2.426" transform="translate(-396.337 -65.329)" fill="#d9e1e3"/>
      <path id="Path_7" data-name="Path 7" d="M550.683,81.846a3.8,3.8,0,0,1-1.761.869,5.929,5.929,0,0,1-.937.106l-.506.015H543.3V71.38h3.529q.665,0,1.012.023a5.54,5.54,0,0,1,.967.128,3.138,3.138,0,0,1,1.685.967,2.7,2.7,0,0,1,.68,1.89,2.469,2.469,0,0,1-1.33,2.3,2.576,2.576,0,0,1,1.889,2.659,3.093,3.093,0,0,1-1.049,2.494m-2.653-7.73a1.555,1.555,0,0,0-.8-.166H546.1v1.784h1.111q1.163,0,1.163-.915a.746.746,0,0,0-.347-.7m.476,4.247a1.98,1.98,0,0,0-.937-.181H546.1v2.086h1.451a1.724,1.724,0,0,0,.96-.226.975.975,0,0,0,.415-.869.857.857,0,0,0-.423-.809" transform="translate(-497.24 -65.329)" fill="#d9e1e3"/>
      <path id="Path_8" data-name="Path 8" d="M665.835,79.066a6.224,6.224,0,0,1-8.516.031,5.461,5.461,0,0,1-1.8-4.133,6.718,6.718,0,0,1,.446-2.448,5.263,5.263,0,0,1,.748-1.285,5.757,5.757,0,0,1,4.844-2.35,5.9,5.9,0,0,1,4.277,1.707,5.969,5.969,0,0,1,0,8.479m-2-6.589a2.875,2.875,0,0,0-2.259-1.028,2.907,2.907,0,0,0-2.267,1,3.379,3.379,0,0,0-.861,2.342,3.463,3.463,0,0,0,.869,2.388,2.919,2.919,0,0,0,2.29,1.02,2.829,2.829,0,0,0,2.229-1.028,3.439,3.439,0,0,0,.846-2.335,3.476,3.476,0,0,0-.846-2.358" transform="translate(-599.946 -63.04)" fill="#d9e1e3"/>
      <path id="Path_9" data-name="Path 9" d="M808.012,82.835l-2.478-4.057-2.35,4.057H799.92l4-6.1L800.38,71.38H803.7l1.964,3.272,1.905-3.272h3.294l-3.5,5.418,3.959,6.037Z" transform="translate(-732.104 -65.329)" fill="#d9e1e3"/>
    </g>
    <rect id="Rectangle_11" data-name="Rectangle 11" width="0.786" height="20.424" transform="translate(915.5 919.571)" fill="#d9e1e3"/>
  </g>
</svg>
